<mxfile host="Electron" modified="2024-02-29T18:43:38.508Z" agent="Mozilla/5.0 (Windows NT 10.0; Win64; x64) AppleWebKit/537.36 (KHTML, like Gecko) draw.io/23.1.5 Chrome/120.0.6099.109 Electron/28.1.0 Safari/537.36" etag="Fu4pf2dw9LaQfUsJYCVH" version="23.1.5" type="device">
  <diagram name="Page-1" id="GmKOVnu1HUBhw32VolcF">
    <mxGraphModel dx="652" dy="868" grid="1" gridSize="10" guides="1" tooltips="1" connect="1" arrows="1" fold="1" page="1" pageScale="1" pageWidth="827" pageHeight="1169" math="0" shadow="0">
      <root>
        <mxCell id="0" />
        <mxCell id="1" parent="0" />
        <mxCell id="gjoIWEntqids-umup4c_-11" value="Shape editor" style="shape=note2;boundedLbl=1;whiteSpace=wrap;html=1;size=25;verticalAlign=top;align=center;" vertex="1" parent="1">
          <mxGeometry x="160" y="110" width="640" height="640" as="geometry" />
        </mxCell>
        <mxCell id="gjoIWEntqids-umup4c_-12" value="Create a simple shape" style="ellipse;whiteSpace=wrap;html=1;" vertex="1" parent="1">
          <mxGeometry x="274" y="490" width="140" height="70" as="geometry" />
        </mxCell>
        <mxCell id="gjoIWEntqids-umup4c_-67" value="" style="edgeStyle=orthogonalEdgeStyle;rounded=0;orthogonalLoop=1;jettySize=auto;html=1;" edge="1" parent="1" source="gjoIWEntqids-umup4c_-13" target="gjoIWEntqids-umup4c_-12">
          <mxGeometry relative="1" as="geometry" />
        </mxCell>
        <mxCell id="gjoIWEntqids-umup4c_-13" value="Create a rectangle" style="ellipse;whiteSpace=wrap;html=1;" vertex="1" parent="1">
          <mxGeometry x="480" y="490" width="140" height="70" as="geometry" />
        </mxCell>
        <mxCell id="gjoIWEntqids-umup4c_-16" value="Move&amp;nbsp;a shape" style="ellipse;whiteSpace=wrap;html=1;" vertex="1" parent="1">
          <mxGeometry x="274" y="580" width="140" height="70" as="geometry" />
        </mxCell>
        <mxCell id="gjoIWEntqids-umup4c_-17" value="Resize&amp;nbsp;a shape" style="ellipse;whiteSpace=wrap;html=1;" vertex="1" parent="1">
          <mxGeometry x="250" y="670" width="140" height="70" as="geometry" />
        </mxCell>
        <mxCell id="gjoIWEntqids-umup4c_-18" value="Save a file" style="ellipse;whiteSpace=wrap;html=1;" vertex="1" parent="1">
          <mxGeometry x="170" y="180" width="140" height="70" as="geometry" />
        </mxCell>
        <mxCell id="gjoIWEntqids-umup4c_-19" value="Restore a file" style="ellipse;whiteSpace=wrap;html=1;" vertex="1" parent="1">
          <mxGeometry x="200" y="380" width="140" height="70" as="geometry" />
        </mxCell>
        <mxCell id="gjoIWEntqids-umup4c_-20" value="User" style="shape=umlActor;verticalLabelPosition=bottom;verticalAlign=top;html=1;" vertex="1" parent="1">
          <mxGeometry x="20" y="430" width="30" height="60" as="geometry" />
        </mxCell>
        <mxCell id="gjoIWEntqids-umup4c_-25" value="" style="endArrow=none;startArrow=none;endFill=0;startFill=0;endSize=8;html=1;verticalAlign=bottom;labelBackgroundColor=none;strokeWidth=3;rounded=0;" edge="1" parent="1" source="gjoIWEntqids-umup4c_-20" target="gjoIWEntqids-umup4c_-12">
          <mxGeometry width="160" relative="1" as="geometry">
            <mxPoint x="90" y="450" as="sourcePoint" />
            <mxPoint x="240" y="450" as="targetPoint" />
          </mxGeometry>
        </mxCell>
        <mxCell id="gjoIWEntqids-umup4c_-29" value="" style="endArrow=none;startArrow=none;endFill=0;startFill=0;endSize=8;html=1;verticalAlign=bottom;labelBackgroundColor=none;strokeWidth=3;rounded=0;" edge="1" parent="1" source="gjoIWEntqids-umup4c_-20" target="gjoIWEntqids-umup4c_-16">
          <mxGeometry width="160" relative="1" as="geometry">
            <mxPoint x="60" y="459" as="sourcePoint" />
            <mxPoint x="271" y="304" as="targetPoint" />
          </mxGeometry>
        </mxCell>
        <mxCell id="gjoIWEntqids-umup4c_-30" value="" style="endArrow=none;startArrow=none;endFill=0;startFill=0;endSize=8;html=1;verticalAlign=bottom;labelBackgroundColor=none;strokeWidth=3;rounded=0;" edge="1" parent="1" source="gjoIWEntqids-umup4c_-20" target="gjoIWEntqids-umup4c_-17">
          <mxGeometry width="160" relative="1" as="geometry">
            <mxPoint x="60" y="467" as="sourcePoint" />
            <mxPoint x="274" y="427" as="targetPoint" />
          </mxGeometry>
        </mxCell>
        <mxCell id="gjoIWEntqids-umup4c_-31" value="" style="endArrow=none;startArrow=none;endFill=0;startFill=0;endSize=8;html=1;verticalAlign=bottom;labelBackgroundColor=none;strokeWidth=3;rounded=0;" edge="1" parent="1" source="gjoIWEntqids-umup4c_-20" target="gjoIWEntqids-umup4c_-19">
          <mxGeometry width="160" relative="1" as="geometry">
            <mxPoint x="60" y="473" as="sourcePoint" />
            <mxPoint x="274" y="513" as="targetPoint" />
          </mxGeometry>
        </mxCell>
        <mxCell id="gjoIWEntqids-umup4c_-32" value="" style="endArrow=none;startArrow=none;endFill=0;startFill=0;endSize=8;html=1;verticalAlign=bottom;labelBackgroundColor=none;strokeWidth=3;rounded=0;" edge="1" parent="1" source="gjoIWEntqids-umup4c_-20" target="gjoIWEntqids-umup4c_-18">
          <mxGeometry width="160" relative="1" as="geometry">
            <mxPoint x="60" y="483" as="sourcePoint" />
            <mxPoint x="264" y="655" as="targetPoint" />
          </mxGeometry>
        </mxCell>
        <mxCell id="gjoIWEntqids-umup4c_-35" value="Create a complex&amp;nbsp;shape" style="ellipse;whiteSpace=wrap;html=1;" vertex="1" parent="1">
          <mxGeometry x="260" y="250" width="140" height="70" as="geometry" />
        </mxCell>
        <mxCell id="gjoIWEntqids-umup4c_-36" value="" style="endArrow=none;startArrow=none;endFill=0;startFill=0;endSize=8;html=1;verticalAlign=bottom;labelBackgroundColor=none;strokeWidth=3;rounded=0;" edge="1" parent="1" source="gjoIWEntqids-umup4c_-20" target="gjoIWEntqids-umup4c_-35">
          <mxGeometry width="160" relative="1" as="geometry">
            <mxPoint x="60" y="467" as="sourcePoint" />
            <mxPoint x="276" y="419" as="targetPoint" />
          </mxGeometry>
        </mxCell>
        <mxCell id="gjoIWEntqids-umup4c_-37" value="Create an intersection" style="ellipse;whiteSpace=wrap;html=1;" vertex="1" parent="1">
          <mxGeometry x="290" y="130" width="140" height="70" as="geometry" />
        </mxCell>
        <mxCell id="gjoIWEntqids-umup4c_-38" value="Create a union" style="ellipse;whiteSpace=wrap;html=1;" vertex="1" parent="1">
          <mxGeometry x="550" y="220" width="140" height="70" as="geometry" />
        </mxCell>
        <mxCell id="gjoIWEntqids-umup4c_-39" value="Create a difference" style="ellipse;whiteSpace=wrap;html=1;" vertex="1" parent="1">
          <mxGeometry x="540" y="130" width="140" height="70" as="geometry" />
        </mxCell>
        <mxCell id="gjoIWEntqids-umup4c_-49" value="Draw a shape" style="ellipse;whiteSpace=wrap;html=1;" vertex="1" parent="1">
          <mxGeometry x="640" y="320" width="140" height="70" as="geometry" />
        </mxCell>
        <mxCell id="gjoIWEntqids-umup4c_-50" value="&amp;lt;&amp;lt;include&amp;gt;&amp;gt;" style="html=1;verticalAlign=bottom;labelBackgroundColor=none;endArrow=open;endFill=0;dashed=1;rounded=0;" edge="1" parent="1" source="gjoIWEntqids-umup4c_-35" target="gjoIWEntqids-umup4c_-49">
          <mxGeometry width="160" relative="1" as="geometry">
            <mxPoint x="430" y="330" as="sourcePoint" />
            <mxPoint x="590" y="330" as="targetPoint" />
          </mxGeometry>
        </mxCell>
        <mxCell id="gjoIWEntqids-umup4c_-51" value="&amp;lt;&amp;lt;include&amp;gt;&amp;gt;" style="html=1;verticalAlign=bottom;labelBackgroundColor=none;endArrow=open;endFill=0;dashed=1;rounded=0;" edge="1" parent="1" source="gjoIWEntqids-umup4c_-12" target="gjoIWEntqids-umup4c_-49">
          <mxGeometry width="160" relative="1" as="geometry">
            <mxPoint x="406" y="307" as="sourcePoint" />
            <mxPoint x="654" y="353" as="targetPoint" />
          </mxGeometry>
        </mxCell>
        <mxCell id="gjoIWEntqids-umup4c_-52" value="&amp;lt;&amp;lt;include&amp;gt;&amp;gt;" style="html=1;verticalAlign=bottom;labelBackgroundColor=none;endArrow=open;endFill=0;dashed=1;rounded=0;" edge="1" parent="1" source="gjoIWEntqids-umup4c_-16" target="gjoIWEntqids-umup4c_-49">
          <mxGeometry width="160" relative="1" as="geometry">
            <mxPoint x="409" y="398" as="sourcePoint" />
            <mxPoint x="652" y="372" as="targetPoint" />
            <Array as="points">
              <mxPoint x="630" y="590" />
            </Array>
          </mxGeometry>
        </mxCell>
        <mxCell id="gjoIWEntqids-umup4c_-53" value="&amp;lt;&amp;lt;include&amp;gt;&amp;gt;" style="html=1;verticalAlign=bottom;labelBackgroundColor=none;endArrow=open;endFill=0;dashed=1;rounded=0;" edge="1" parent="1" source="gjoIWEntqids-umup4c_-17" target="gjoIWEntqids-umup4c_-49">
          <mxGeometry width="160" relative="1" as="geometry">
            <mxPoint x="409" y="398" as="sourcePoint" />
            <mxPoint x="652" y="372" as="targetPoint" />
            <Array as="points">
              <mxPoint x="660" y="620" />
            </Array>
          </mxGeometry>
        </mxCell>
        <mxCell id="gjoIWEntqids-umup4c_-61" value="&amp;lt;&amp;lt;extend&amp;gt;&amp;gt;" style="html=1;verticalAlign=bottom;labelBackgroundColor=none;endArrow=open;endFill=0;dashed=1;rounded=0;" edge="1" parent="1" source="gjoIWEntqids-umup4c_-35" target="gjoIWEntqids-umup4c_-19">
          <mxGeometry width="160" relative="1" as="geometry">
            <mxPoint x="561" y="272" as="sourcePoint" />
            <mxPoint x="409" y="288" as="targetPoint" />
          </mxGeometry>
        </mxCell>
        <mxCell id="gjoIWEntqids-umup4c_-62" value="&amp;lt;&amp;lt;extend&amp;gt;&amp;gt;" style="html=1;verticalAlign=bottom;labelBackgroundColor=none;endArrow=open;endFill=0;dashed=1;rounded=0;" edge="1" parent="1" source="gjoIWEntqids-umup4c_-12" target="gjoIWEntqids-umup4c_-19">
          <mxGeometry width="160" relative="1" as="geometry">
            <mxPoint x="324" y="329" as="sourcePoint" />
            <mxPoint x="296" y="391" as="targetPoint" />
          </mxGeometry>
        </mxCell>
        <mxCell id="gjoIWEntqids-umup4c_-63" value="" style="endArrow=block;endSize=16;endFill=0;html=1;rounded=0;" edge="1" parent="1" source="gjoIWEntqids-umup4c_-38" target="gjoIWEntqids-umup4c_-35">
          <mxGeometry width="160" relative="1" as="geometry">
            <mxPoint x="370" y="380" as="sourcePoint" />
            <mxPoint x="530" y="380" as="targetPoint" />
          </mxGeometry>
        </mxCell>
        <mxCell id="gjoIWEntqids-umup4c_-64" value="" style="endArrow=block;endSize=16;endFill=0;html=1;rounded=0;" edge="1" parent="1" source="gjoIWEntqids-umup4c_-39" target="gjoIWEntqids-umup4c_-35">
          <mxGeometry width="160" relative="1" as="geometry">
            <mxPoint x="561" y="272" as="sourcePoint" />
            <mxPoint x="409" y="288" as="targetPoint" />
          </mxGeometry>
        </mxCell>
        <mxCell id="gjoIWEntqids-umup4c_-65" value="" style="endArrow=block;endSize=16;endFill=0;html=1;rounded=0;" edge="1" parent="1" source="gjoIWEntqids-umup4c_-37" target="gjoIWEntqids-umup4c_-35">
          <mxGeometry width="160" relative="1" as="geometry">
            <mxPoint x="567" y="198" as="sourcePoint" />
            <mxPoint x="393" y="272" as="targetPoint" />
          </mxGeometry>
        </mxCell>
        <mxCell id="gjoIWEntqids-umup4c_-66" value="" style="endArrow=block;endSize=16;endFill=0;html=1;rounded=0;" edge="1" parent="1" source="gjoIWEntqids-umup4c_-13" target="gjoIWEntqids-umup4c_-12">
          <mxGeometry width="160" relative="1" as="geometry">
            <mxPoint x="361" y="210" as="sourcePoint" />
            <mxPoint x="349" y="260" as="targetPoint" />
          </mxGeometry>
        </mxCell>
      </root>
    </mxGraphModel>
  </diagram>
</mxfile>
